<svg width="177" height="18" viewBox="0 0 177 18" fill="none" xmlns="http://www.w3.org/2000/svg">
<path d="M6.86286 9.53488H5.54102V8.84082H6.86286C7.09305 8.84082 7.27906 8.80362 7.4209 8.72921C7.56273 8.65481 7.6662 8.5525 7.7313 8.42229C7.79873 8.28976 7.83245 8.13863 7.83245 7.96889C7.83245 7.80846 7.79873 7.65848 7.7313 7.51897C7.6662 7.37714 7.56273 7.26321 7.4209 7.17718C7.27906 7.09115 7.09305 7.04813 6.86286 7.04813H5.80957V11.4287H4.93415V6.35059H6.86286C7.25581 6.35059 7.58947 6.42034 7.86384 6.55985C8.14053 6.69703 8.35096 6.8877 8.49512 7.13184C8.63927 7.37365 8.71135 7.65035 8.71135 7.96192C8.71135 8.28976 8.63927 8.5711 8.49512 8.80594C8.35096 9.04078 8.14053 9.22098 7.86384 9.34654C7.58947 9.4721 7.25581 9.53488 6.86286 9.53488ZM13.6168 8.75014V9.02916C13.6168 9.41281 13.5668 9.75693 13.4668 10.0615C13.3668 10.3661 13.2238 10.6254 13.0378 10.8393C12.8541 11.0532 12.6332 11.2171 12.3751 11.3311C12.117 11.4427 11.8311 11.4985 11.5172 11.4985C11.2056 11.4985 10.9208 11.4427 10.6627 11.3311C10.4069 11.2171 10.1848 11.0532 9.99651 10.8393C9.80817 10.6254 9.66169 10.3661 9.55706 10.0615C9.45475 9.75693 9.4036 9.41281 9.4036 9.02916V8.75014C9.4036 8.36649 9.45475 8.02353 9.55706 7.72126C9.65936 7.41667 9.80352 7.15741 9.98953 6.9435C10.1779 6.72726 10.3999 6.56334 10.6557 6.45173C10.9138 6.3378 11.1986 6.28083 11.5102 6.28083C11.8241 6.28083 12.1101 6.3378 12.3682 6.45173C12.6263 6.56334 12.8483 6.72726 13.0343 6.9435C13.2203 7.15741 13.3633 7.41667 13.4633 7.72126C13.5656 8.02353 13.6168 8.36649 13.6168 8.75014ZM12.7413 9.02916V8.74316C12.7413 8.4595 12.7134 8.20954 12.6576 7.9933C12.6042 7.77474 12.5239 7.59222 12.417 7.44573C12.3124 7.29692 12.1833 7.18532 12.0299 7.11091C11.8764 7.03418 11.7032 6.99582 11.5102 6.99582C11.3172 6.99582 11.1451 7.03418 10.994 7.11091C10.8429 7.18532 10.7138 7.29692 10.6069 7.44573C10.5022 7.59222 10.422 7.77474 10.3662 7.9933C10.3104 8.20954 10.2825 8.4595 10.2825 8.74316V9.02916C10.2825 9.31283 10.3104 9.56394 10.3662 9.78251C10.422 10.0011 10.5034 10.1859 10.6103 10.3371C10.7196 10.4859 10.8498 10.5986 11.001 10.6754C11.1521 10.7498 11.3242 10.787 11.5172 10.787C11.7125 10.787 11.8857 10.7498 12.0368 10.6754C12.188 10.5986 12.3158 10.4859 12.4205 10.3371C12.5251 10.1859 12.6042 10.0011 12.6576 9.78251C12.7134 9.56394 12.7413 9.31283 12.7413 9.02916ZM15.8366 10.2882L16.8481 6.35059H17.3782L17.3189 7.36551L16.2377 11.4287H15.6867L15.8366 10.2882ZM15.0798 6.35059L15.8994 10.2568L15.9727 11.4287H15.3867L14.2114 6.35059H15.0798ZM18.5257 10.2464L19.3348 6.35059H20.2067L19.0314 11.4287H18.4454L18.5257 10.2464ZM17.584 6.35059L18.585 10.2987L18.7314 11.4287H18.1804L17.1166 7.36551L17.0608 6.35059H17.584ZM24.2507 10.7347V11.4287H21.5547V10.7347H24.2507ZM21.8023 6.35059V11.4287H20.9269V6.35059H21.8023ZM23.8984 8.47112V9.15472H21.5547V8.47112H23.8984ZM24.2333 6.35059V7.04813H21.5547V6.35059H24.2333ZM25.0371 6.35059H26.8333C27.2193 6.35059 27.5483 6.40872 27.8203 6.52497C28.0923 6.64123 28.3004 6.81329 28.4446 7.04116C28.5911 7.2667 28.6643 7.54571 28.6643 7.87821C28.6643 8.13165 28.6178 8.35487 28.5248 8.54785C28.4318 8.74084 28.3004 8.9036 28.1307 9.03613C27.961 9.16634 27.7587 9.26749 27.5238 9.33957L27.2588 9.46861H25.644L25.637 8.77455H26.8472C27.0565 8.77455 27.2309 8.73735 27.3704 8.66295C27.5099 8.58854 27.6145 8.4874 27.6843 8.35952C27.7564 8.22931 27.7924 8.08282 27.7924 7.92006C27.7924 7.74335 27.7575 7.58989 27.6878 7.45968C27.6203 7.32715 27.5157 7.22601 27.3739 7.15625C27.232 7.08417 27.0518 7.04813 26.8333 7.04813H25.9125V11.4287H25.0371V6.35059ZM27.9354 11.4287L26.7426 9.14774L27.6599 9.14425L28.8701 11.3834V11.4287H27.9354ZM32.9315 10.7347V11.4287H30.2355V10.7347H32.9315ZM30.4831 6.35059V11.4287H29.6077V6.35059H30.4831ZM32.5792 8.47112V9.15472H30.2355V8.47112H32.5792ZM32.9141 6.35059V7.04813H30.2355V6.35059H32.9141ZM35.1932 11.4287H34.1085L34.1155 10.7347H35.1932C35.5071 10.7347 35.7698 10.6661 35.9814 10.5289C36.1953 10.3917 36.3558 10.1952 36.4627 9.93945C36.572 9.68369 36.6267 9.37909 36.6267 9.02567V8.75014C36.6267 8.47577 36.5953 8.23279 36.5325 8.02121C36.472 7.80962 36.3814 7.63174 36.2605 7.48759C36.1419 7.34343 35.9954 7.23414 35.821 7.15974C35.6489 7.08533 35.4501 7.04813 35.2246 7.04813H34.0876V6.35059H35.2246C35.5617 6.35059 35.8698 6.40755 36.1488 6.52149C36.4279 6.63309 36.6685 6.79469 36.8708 7.00628C37.0754 7.21787 37.2324 7.47131 37.3416 7.7666C37.4509 8.0619 37.5056 8.39207 37.5056 8.75712V9.02567C37.5056 9.39072 37.4509 9.72089 37.3416 10.0162C37.2324 10.3115 37.0754 10.5649 36.8708 10.7765C36.6662 10.9858 36.422 11.1474 36.1384 11.2613C35.857 11.3729 35.542 11.4287 35.1932 11.4287ZM34.5933 6.35059V11.4287H33.7179V6.35059H34.5933ZM42.2104 9.13379H40.9164L40.9094 8.49554H42.0395C42.2301 8.49554 42.3917 8.46763 42.5243 8.41183C42.6591 8.3537 42.7614 8.27116 42.8312 8.1642C42.9009 8.05492 42.9358 7.92355 42.9358 7.77009C42.9358 7.60035 42.9033 7.46201 42.8382 7.35505C42.7731 7.24809 42.6731 7.1702 42.5382 7.12137C42.4057 7.07255 42.2359 7.04813 42.029 7.04813H41.1815V11.4287H40.3061V6.35059H42.029C42.308 6.35059 42.5568 6.37733 42.7754 6.43081C42.9963 6.48428 43.1834 6.56799 43.3369 6.68192C43.4927 6.79353 43.6101 6.93536 43.6892 7.10742C43.7705 7.27948 43.8112 7.4841 43.8112 7.72126C43.8112 7.93053 43.7612 8.12235 43.6613 8.29674C43.5613 8.4688 43.4136 8.60947 43.2183 8.71875C43.023 8.82803 42.78 8.89314 42.4894 8.91406L42.2104 9.13379ZM42.172 11.4287H40.6409L41.035 10.7347H42.172C42.3696 10.7347 42.5347 10.7021 42.6673 10.637C42.7998 10.5696 42.8986 10.4777 42.9637 10.3615C43.0311 10.2429 43.0649 10.1045 43.0649 9.94643C43.0649 9.78134 43.0358 9.63835 42.9777 9.51744C42.9195 9.39421 42.8277 9.30004 42.7021 9.23493C42.5766 9.1675 42.4127 9.13379 42.2104 9.13379H41.2268L41.2338 8.49554H42.5138L42.7126 8.73619C42.9916 8.74549 43.2206 8.80711 43.3997 8.92104C43.581 9.03497 43.7159 9.18262 43.8043 9.36398C43.8926 9.54534 43.9368 9.74065 43.9368 9.94992C43.9368 10.2731 43.8659 10.544 43.724 10.7626C43.5845 10.9811 43.3834 11.1474 43.1207 11.2613C42.8579 11.3729 42.5417 11.4287 42.172 11.4287ZM45.1801 6.35059L46.3589 8.77455L47.5378 6.35059H48.5074L46.7984 9.55929V11.4287H45.916V9.55929L44.207 6.35059H45.1801Z" fill="#DCDFE3"/>
<path d="M81.7905 9.45021C81.7905 8.5916 81.9668 7.84281 82.3195 7.20384C82.6722 6.55489 83.1609 6.05569 83.7857 5.70626C84.4105 5.34684 85.1259 5.16713 85.9321 5.16713C86.97 5.16713 87.8266 5.42671 88.5017 5.94587C89.187 6.45505 89.6455 7.17389 89.8772 8.10239H87.5948C87.4739 7.74297 87.2673 7.46342 86.9751 7.26374C86.6929 7.05408 86.3402 6.94925 85.917 6.94925C85.3124 6.94925 84.8337 7.16889 84.481 7.60819C84.1283 8.03749 83.952 8.6515 83.952 9.45021C83.952 10.2389 84.1283 10.8529 84.481 11.2922C84.8337 11.7215 85.3124 11.9362 85.917 11.9362C86.7735 11.9362 87.3328 11.5568 87.5948 10.798H89.8772C89.6455 11.6966 89.187 12.4104 88.5017 12.9396C87.8165 13.4687 86.96 13.7333 85.9321 13.7333C85.1259 13.7333 84.4105 13.5586 83.7857 13.2091C83.1609 12.8497 82.6722 12.3505 82.3195 11.7116C81.9668 11.0626 81.7905 10.3088 81.7905 9.45021Z" fill="#DCDFE3"/>
<path d="M95.1459 13.7333C94.3397 13.7333 93.6142 13.5586 92.9693 13.2091C92.3243 12.8497 91.8155 12.3455 91.4426 11.6966C91.0798 11.0476 90.8985 10.2988 90.8985 9.45021C90.8985 8.60158 91.0849 7.85279 91.4577 7.20384C91.8406 6.55489 92.3596 6.05569 93.0146 5.70626C93.6696 5.34684 94.4002 5.16713 95.2063 5.16713C96.0125 5.16713 96.7431 5.34684 97.3981 5.70626C98.0531 6.05569 98.567 6.55489 98.9398 7.20384C99.3228 7.85279 99.5142 8.60158 99.5142 9.45021C99.5142 10.2988 99.3177 11.0476 98.9247 11.6966C98.5418 12.3455 98.0178 12.8497 97.3527 13.2091C96.6977 13.5586 95.9621 13.7333 95.1459 13.7333ZM95.1459 11.9062C95.5288 11.9062 95.8865 11.8164 96.2191 11.6367C96.5617 11.447 96.8338 11.1674 97.0353 10.798C97.2368 10.4286 97.3376 9.97936 97.3376 9.45021C97.3376 8.66148 97.126 8.05746 96.7028 7.63814C96.2896 7.20883 95.7807 6.99418 95.1761 6.99418C94.5715 6.99418 94.0626 7.20883 93.6495 7.63814C93.2464 8.05746 93.0448 8.66148 93.0448 9.45021C93.0448 10.2389 93.2413 10.848 93.6343 11.2773C94.0374 11.6966 94.5413 11.9062 95.1459 11.9062Z" fill="#DCDFE3"/>
<path d="M100.336 9.42026C100.336 8.58161 100.503 7.83781 100.835 7.18886C101.178 6.53991 101.636 6.04072 102.211 5.69128C102.795 5.34184 103.445 5.16713 104.161 5.16713C104.785 5.16713 105.329 5.29193 105.793 5.54152C106.267 5.79112 106.644 6.10561 106.927 6.485V5.30191H109.058V13.5985H106.927V12.3855C106.655 12.7748 106.277 13.0993 105.793 13.3589C105.319 13.6085 104.77 13.7333 104.145 13.7333C103.44 13.7333 102.795 13.5536 102.211 13.1942C101.636 12.8347 101.178 12.3306 100.835 11.6816C100.503 11.0227 100.336 10.2689 100.336 9.42026ZM106.927 9.45021C106.927 8.94103 106.826 8.50673 106.624 8.14732C106.423 7.77791 106.151 7.49836 105.808 7.30867C105.465 7.10899 105.098 7.00915 104.705 7.00915C104.312 7.00915 103.949 7.104 103.616 7.29369C103.284 7.48339 103.012 7.76294 102.8 8.13234C102.599 8.49176 102.498 8.92106 102.498 9.42026C102.498 9.91945 102.599 10.3587 102.8 10.7381C103.012 11.1075 103.284 11.3921 103.616 11.5918C103.959 11.7914 104.322 11.8913 104.705 11.8913C105.098 11.8913 105.465 11.7964 105.808 11.6067C106.151 11.4071 106.423 11.1275 106.624 10.7681C106.826 10.3987 106.927 9.95939 106.927 9.45021Z" fill="#DCDFE3"/>
<path d="M113.957 13.7333C113.272 13.7333 112.657 13.6135 112.113 13.3739C111.569 13.1243 111.136 12.7898 110.813 12.3705C110.501 11.9512 110.329 11.4869 110.299 10.9777H112.43C112.471 11.2972 112.627 11.5618 112.899 11.7715C113.181 11.9811 113.529 12.086 113.942 12.086C114.345 12.086 114.657 12.0061 114.879 11.8463C115.111 11.6866 115.227 11.4819 115.227 11.2323C115.227 10.9628 115.086 10.7631 114.804 10.6333C114.531 10.4935 114.093 10.3438 113.488 10.184C112.864 10.0343 112.35 9.87952 111.947 9.71978C111.554 9.56003 111.211 9.31543 110.919 8.98596C110.637 8.65649 110.496 8.21221 110.496 7.65311C110.496 7.19385 110.627 6.77453 110.889 6.39514C111.161 6.01576 111.544 5.71624 112.037 5.4966C112.541 5.27695 113.131 5.16713 113.806 5.16713C114.804 5.16713 115.6 5.41672 116.194 5.91592C116.789 6.40513 117.116 7.06906 117.177 7.9077H115.151C115.121 7.57823 114.98 7.31865 114.728 7.12896C114.486 6.92928 114.159 6.82944 113.745 6.82944C113.363 6.82944 113.065 6.89933 112.854 7.0391C112.652 7.17888 112.551 7.37356 112.551 7.62316C112.551 7.90271 112.692 8.11736 112.975 8.26712C113.257 8.4069 113.695 8.55166 114.29 8.70142C114.894 8.85118 115.393 9.00593 115.786 9.16567C116.179 9.32541 116.517 9.57501 116.799 9.91446C117.091 10.2439 117.242 10.6832 117.252 11.2323C117.252 11.7116 117.116 12.1409 116.844 12.5203C116.582 12.8996 116.199 13.1992 115.695 13.4188C115.202 13.6285 114.622 13.7333 113.957 13.7333Z" fill="#DCDFE3"/>
<path d="M121.822 13.7333C121.136 13.7333 120.522 13.6135 119.978 13.3739C119.433 13.1243 119 12.7898 118.678 12.3705C118.365 11.9512 118.194 11.4869 118.164 10.9777H120.295C120.335 11.2972 120.492 11.5618 120.764 11.7715C121.046 11.9811 121.393 12.086 121.807 12.086C122.21 12.086 122.522 12.0061 122.744 11.8463C122.975 11.6866 123.091 11.4819 123.091 11.2323C123.091 10.9628 122.95 10.7631 122.668 10.6333C122.396 10.4935 121.958 10.3438 121.353 10.184C120.728 10.0343 120.214 9.87952 119.811 9.71978C119.418 9.56003 119.076 9.31543 118.783 8.98596C118.501 8.65649 118.36 8.21221 118.36 7.65311C118.36 7.19385 118.491 6.77453 118.753 6.39514C119.025 6.01576 119.408 5.71624 119.902 5.4966C120.406 5.27695 120.995 5.16713 121.671 5.16713C122.668 5.16713 123.464 5.41672 124.059 5.91592C124.653 6.40513 124.981 7.06906 125.041 7.9077H123.016C122.986 7.57823 122.844 7.31865 122.593 7.12896C122.351 6.92928 122.023 6.82944 121.61 6.82944C121.227 6.82944 120.93 6.89933 120.718 7.0391C120.517 7.17888 120.416 7.37356 120.416 7.62316C120.416 7.90271 120.557 8.11736 120.839 8.26712C121.121 8.4069 121.56 8.55166 122.154 8.70142C122.759 8.85118 123.258 9.00593 123.651 9.16567C124.044 9.32541 124.381 9.57501 124.663 9.91446C124.956 10.2439 125.107 10.6832 125.117 11.2323C125.117 11.7116 124.981 12.1409 124.709 12.5203C124.447 12.8996 124.064 13.1992 123.56 13.4188C123.066 13.6285 122.487 13.7333 121.822 13.7333Z" fill="#DCDFE3"/>
<path d="M134.452 9.2705C134.452 9.57002 134.432 9.83958 134.392 10.0792H128.27C128.32 10.6782 128.532 11.1475 128.905 11.4869C129.278 11.8264 129.736 11.9961 130.28 11.9961C131.066 11.9961 131.626 11.6616 131.958 10.9927H134.241C133.999 11.7914 133.535 12.4504 132.85 12.9695C132.165 13.4787 131.323 13.7333 130.326 13.7333C129.52 13.7333 128.794 13.5586 128.149 13.2091C127.514 12.8497 127.016 12.3455 126.653 11.6966C126.3 11.0476 126.124 10.2988 126.124 9.45021C126.124 8.5916 126.3 7.83781 126.653 7.18886C127.005 6.53991 127.499 6.04072 128.134 5.69128C128.769 5.34184 129.499 5.16713 130.326 5.16713C131.122 5.16713 131.832 5.33685 132.457 5.6763C133.092 6.01576 133.581 6.49997 133.923 7.12896C134.276 7.74796 134.452 8.46181 134.452 9.2705ZM132.261 8.67147C132.25 8.13234 132.054 7.70303 131.671 7.38355C131.288 7.05408 130.82 6.88935 130.265 6.88935C129.741 6.88935 129.298 7.04909 128.935 7.36857C128.582 7.67807 128.366 8.11237 128.285 8.67147H132.261Z" fill="#DCDFE3"/>
<path d="M146.024 5.1821C147.052 5.1821 147.878 5.49659 148.503 6.12558C149.138 6.74458 149.455 7.61318 149.455 8.73137V13.5985H147.339V9.01591C147.339 8.36696 147.173 7.87276 146.84 7.53331C146.508 7.18387 146.054 7.00915 145.48 7.00915C144.906 7.00915 144.447 7.18387 144.105 7.53331C143.772 7.87276 143.606 8.36696 143.606 9.01591V13.5985H141.49V9.01591C141.49 8.36696 141.323 7.87276 140.991 7.53331C140.658 7.18387 140.205 7.00915 139.63 7.00915C139.046 7.00915 138.582 7.18387 138.24 7.53331C137.907 7.87276 137.741 8.36696 137.741 9.01591V13.5985H135.625V5.30191H137.741V6.30529C138.013 5.95585 138.361 5.6813 138.784 5.48162C139.217 5.28194 139.691 5.1821 140.205 5.1821C140.86 5.1821 141.444 5.32188 141.958 5.60143C142.472 5.87099 142.87 6.26036 143.152 6.76954C143.424 6.29031 143.817 5.90593 144.331 5.6164C144.855 5.32687 145.42 5.1821 146.024 5.1821Z" fill="#DCDFE3"/>
<path d="M153.208 6.51495C153.48 6.1156 153.852 5.79112 154.326 5.54152C154.81 5.29193 155.359 5.16713 155.974 5.16713C156.689 5.16713 157.334 5.34184 157.908 5.69128C158.493 6.04072 158.951 6.53991 159.284 7.18886C159.627 7.82783 159.798 8.57163 159.798 9.42026C159.798 10.2689 159.627 11.0227 159.284 11.6816C158.951 12.3306 158.493 12.8347 157.908 13.1942C157.334 13.5536 156.689 13.7333 155.974 13.7333C155.349 13.7333 154.8 13.6135 154.326 13.3739C153.863 13.1243 153.49 12.8048 153.208 12.4154V13.5985H151.091V2.51641H153.208V6.51495ZM157.636 9.42026C157.636 8.92106 157.531 8.49176 157.319 8.13234C157.117 7.76294 156.845 7.48339 156.503 7.29369C156.17 7.104 155.807 7.00915 155.414 7.00915C155.031 7.00915 154.669 7.10899 154.326 7.30867C153.994 7.49836 153.721 7.77791 153.51 8.14732C153.308 8.51672 153.208 8.95102 153.208 9.45021C153.208 9.9494 153.308 10.3837 153.51 10.7531C153.721 11.1225 153.994 11.4071 154.326 11.6067C154.669 11.7964 155.031 11.8913 155.414 11.8913C155.807 11.8913 156.17 11.7914 156.503 11.5918C156.845 11.3921 157.117 11.1075 157.319 10.7381C157.531 10.3687 157.636 9.92944 157.636 9.42026Z" fill="#DCDFE3"/>
<path d="M163.08 2.51641V13.5985H160.964V2.51641H163.08Z" fill="#DCDFE3"/>
<path d="M172.583 9.2705C172.583 9.57002 172.563 9.83958 172.522 10.0792H166.401C166.451 10.6782 166.663 11.1475 167.035 11.4869C167.408 11.8264 167.867 11.9961 168.411 11.9961C169.197 11.9961 169.756 11.6616 170.089 10.9927H172.371C172.129 11.7914 171.666 12.4504 170.981 12.9695C170.295 13.4787 169.454 13.7333 168.456 13.7333C167.65 13.7333 166.925 13.5586 166.28 13.2091C165.645 12.8497 165.146 12.3455 164.783 11.6966C164.431 11.0476 164.254 10.2988 164.254 9.45021C164.254 8.5916 164.431 7.83781 164.783 7.18886C165.136 6.53991 165.63 6.04072 166.265 5.69128C166.899 5.34184 167.63 5.16713 168.456 5.16713C169.252 5.16713 169.963 5.33685 170.588 5.6763C171.222 6.01576 171.711 6.49997 172.054 7.12896C172.406 7.74796 172.583 8.46181 172.583 9.2705ZM170.391 8.67147C170.381 8.13234 170.184 7.70303 169.802 7.38355C169.419 7.05408 168.95 6.88935 168.396 6.88935C167.872 6.88935 167.428 7.04909 167.066 7.36857C166.713 7.67807 166.496 8.11237 166.416 8.67147H170.391Z" fill="#DCDFE3"/>
<path d="M74.7206 9.42885C74.7206 7.08599 73.7401 4.91456 72.1829 3.37171C70.6256 1.82885 68.434 0.857422 66.0693 0.857422C63.7046 0.857422 61.5129 1.82885 59.9557 3.37171C58.3985 4.91456 57.418 7.08599 57.418 9.42885C57.418 11.7717 58.3985 13.9431 59.9557 15.486C61.5129 17.0288 63.7046 18.0003 66.0693 18.0003V13.6574C64.8581 13.6574 63.8199 13.2003 63.0125 12.4003C62.205 11.6003 61.7436 10.5717 61.7436 9.3717C61.7436 8.1717 62.205 7.14313 63.0125 6.34313C63.8199 5.54313 64.8581 5.08599 66.0693 5.08599C67.2805 5.08599 68.3186 5.54313 69.1261 6.34313C69.9335 7.14313 70.3949 8.1717 70.3949 9.3717H74.7206V9.42885Z" fill="#DCDFE3"/>
<path d="M74.7206 13.7146H70.3949V18.0003H74.7206V13.7146Z" fill="#DCDFE3"/>
</svg>
