<svg width="1144" height="96" viewBox="0 0 1144 96" fill="none" xmlns="http://www.w3.org/2000/svg">
<g filter="url(#filter0_ddd_1605_2974)">
<g clip-path="url(#clip0_1605_2974)">
<rect x="8" y="6" width="1128" height="80" rx="12" fill="#FAFAFA"/>
<rect x="24" y="22" width="48" height="48" rx="24" fill="#F5F5F5"/>
<path d="M41.6438 49.3563C43.4062 51.1188 45.525 52 48 52C50.475 52 52.5937 51.1188 54.3562 49.3563C56.1188 47.5938 57 45.475 57 43C57 40.525 56.1188 38.4063 54.3562 36.6438C52.5937 34.8813 50.475 34 48 34C45.525 34 43.4062 34.8813 41.6438 36.6438C39.8813 38.4063 39 40.525 39 43C39 45.475 39.8813 47.5938 41.6438 49.3563Z" fill="#ECECEC"/>
<path d="M30 63.7V70H66V63.7C66 62.425 65.6719 61.2531 65.0156 60.1844C64.3594 59.1156 63.4875 58.3 62.4 57.7375C60.075 56.575 57.7125 55.7031 55.3125 55.1219C52.9125 54.5406 50.475 54.25 48 54.25C45.525 54.25 43.0875 54.5406 40.6875 55.1219C38.2875 55.7031 35.925 56.575 33.6 57.7375C32.5125 58.3 31.6406 59.1156 30.9844 60.1844C30.3281 61.2531 30 62.425 30 63.7Z" fill="#ECECEC"/>
<rect x="96" y="38" width="176" height="16" rx="8" fill="#F5F5F5"/>
<circle cx="1104" cy="46" r="16" fill="#F5F5F5"/>
</g>
</g>
<defs>
<filter id="filter0_ddd_1605_2974" x="0" y="0" width="1144" height="96" filterUnits="userSpaceOnUse" color-interpolation-filters="sRGB">
<feFlood flood-opacity="0" result="BackgroundImageFix"/>
<feColorMatrix in="SourceAlpha" type="matrix" values="0 0 0 0 0 0 0 0 0 0 0 0 0 0 0 0 0 0 127 0" result="hardAlpha"/>
<feOffset/>
<feGaussianBlur stdDeviation="0.5"/>
<feColorMatrix type="matrix" values="0 0 0 0 0 0 0 0 0 0 0 0 0 0 0 0 0 0 0.04 0"/>
<feBlend mode="normal" in2="BackgroundImageFix" result="effect1_dropShadow_1605_2974"/>
<feColorMatrix in="SourceAlpha" type="matrix" values="0 0 0 0 0 0 0 0 0 0 0 0 0 0 0 0 0 0 127 0" result="hardAlpha"/>
<feOffset/>
<feGaussianBlur stdDeviation="1"/>
<feColorMatrix type="matrix" values="0 0 0 0 0 0 0 0 0 0 0 0 0 0 0 0 0 0 0.06 0"/>
<feBlend mode="normal" in2="effect1_dropShadow_1605_2974" result="effect2_dropShadow_1605_2974"/>
<feColorMatrix in="SourceAlpha" type="matrix" values="0 0 0 0 0 0 0 0 0 0 0 0 0 0 0 0 0 0 127 0" result="hardAlpha"/>
<feOffset dy="2"/>
<feGaussianBlur stdDeviation="4"/>
<feColorMatrix type="matrix" values="0 0 0 0 0 0 0 0 0 0 0 0 0 0 0 0 0 0 0.04 0"/>
<feBlend mode="normal" in2="effect2_dropShadow_1605_2974" result="effect3_dropShadow_1605_2974"/>
<feBlend mode="normal" in="SourceGraphic" in2="effect3_dropShadow_1605_2974" result="shape"/>
</filter>
<clipPath id="clip0_1605_2974">
<rect x="8" y="6" width="1128" height="80" rx="12" fill="white"/>
</clipPath>
</defs>
</svg>
