<svg width="48" height="48" viewBox="0 0 48 48" fill="none" xmlns="http://www.w3.org/2000/svg">
<rect width="48" height="48" rx="24" fill="#F5F5F5"/>
<path d="M5.35229 39.1097C5.52078 38.6005 5.74969 38.1103 6.03903 37.6391C6.73174 36.5109 7.65205 35.65 8.79997 35.0562C11.2541 33.8292 13.7479 32.9089 16.2812 32.2953C18.8146 31.6818 21.3875 31.375 24 31.375C26.6125 31.375 29.1854 31.6818 31.7187 32.2953C34.2521 32.9089 36.7458 33.8292 39.2 35.0562C40.3479 35.65 41.2682 36.5109 41.9609 37.6391C42.2502 38.1103 42.4792 38.6005 42.6476 39.1097C38.2474 44.5335 31.5285 48 24 48C16.4714 48 9.75253 44.5335 5.35229 39.1097Z" fill="#ECECEC"/>
<path d="M24 29C21.3875 29 19.151 28.0698 17.2906 26.2094C15.4302 24.349 14.5 22.1125 14.5 19.5C14.5 16.8875 15.4302 14.651 17.2906 12.7906C19.151 10.9302 21.3875 10 24 10C26.6125 10 28.8489 10.9302 30.7093 12.7906C32.5698 14.651 33.5 16.8875 33.5 19.5C33.5 22.1125 32.5698 24.349 30.7093 26.2094C28.8489 28.0698 26.6125 29 24 29Z" fill="#ECECEC"/>
</svg>
