<svg width="48" height="48" viewBox="0 0 48 48" fill="none" xmlns="http://www.w3.org/2000/svg">
<rect x="0.5" y="0.5" width="47" height="47" rx="11.5" stroke="white" stroke-opacity="0.12"/>
<g opacity="0.3">
<path d="M20.1 33.2125C21.3167 33.7375 22.6167 34 24 34C25.3833 34 26.6833 33.7375 27.9 33.2125C29.1167 32.6875 30.175 31.975 31.075 31.075C31.975 30.175 32.6875 29.1167 33.2125 27.9C33.7375 26.6833 34 25.3833 34 24C34 22.6167 33.7375 21.3167 33.2125 20.1C32.6875 18.8833 31.975 17.825 31.075 16.925C30.175 16.025 29.1167 15.3125 27.9 14.7875C26.6833 14.2625 25.3833 14 24 14C22.6167 14 21.3167 14.2625 20.1 14.7875C18.8833 15.3125 17.825 16.025 16.925 16.925C16.025 17.825 15.3125 18.8833 14.7875 20.1C14.2625 21.3167 14 22.6167 14 24C14 25.3833 14.2625 26.6833 14.7875 27.9C15.3125 29.1167 16.025 30.175 16.925 31.075C17.825 31.975 18.8833 32.6875 20.1 33.2125Z" fill="white"/>
</g>
</svg>
