<svg viewBox="0 0 648 688" fill="none" xmlns="http://www.w3.org/2000/svg">
<g filter="url(#filter0_ddd_1605_923)">
<rect x="0" y="0" width="648" height="688" rx="16" fill="#FAFAFA"/>
<rect x="32" y="54" width="315" height="32" rx="16" fill="#F5F5F5"/>
<path d="M632 388H32V392H632V388Z" fill="#F5F5F5" mask="url(#path-3-inside-1_1605_923)"/>
<rect x="32" y="150" width="48" height="48" rx="24" fill="#F5F5F5"/>
<path d="M49.6438 177.356C51.4062 179.119 53.525 180 56 180C58.475 180 60.5937 179.119 62.3562 177.356C64.1188 175.594 65 173.475 65 171C65 168.525 64.1188 166.406 62.3562 164.644C60.5937 162.881 58.475 162 56 162C53.525 162 51.4062 162.881 49.6438 164.644C47.8813 166.406 47 168.525 47 171C47 173.475 47.8813 175.594 49.6438 177.356Z" fill="#ECECEC"/>
<path d="M38 191.7V198H74V191.7C74 190.425 73.6719 189.253 73.0156 188.184C72.3594 187.116 71.4875 186.3 70.4 185.738C68.075 184.575 65.7125 183.703 63.3125 183.122C60.9125 182.541 58.475 182.25 56 182.25C53.525 182.25 51.0875 182.541 48.6875 183.122C46.2875 183.703 43.925 184.575 41.6 185.738C40.5125 186.3 39.6406 187.116 38.9844 188.184C38.3281 189.253 38 190.425 38 191.7Z" fill="#ECECEC"/>
<rect x="89" y="166" width="176" height="16" rx="8" fill="#F5F5F5"/>
<rect x="503" y="164" width="97" height="20" rx="10" fill="#F5F5F5"/>
<path d="M618.1 183.212C619.317 183.737 620.617 184 622 184C623.383 184 624.683 183.737 625.9 183.212C627.117 182.688 628.175 181.975 629.075 181.075C629.975 180.175 630.688 179.117 631.212 177.9C631.737 176.683 632 175.383 632 174C632 172.617 631.737 171.317 631.212 170.1C630.688 168.883 629.975 167.825 629.075 166.925C628.175 166.025 627.117 165.312 625.9 164.788C624.683 164.262 623.383 164 622 164C620.617 164 619.317 164.262 618.1 164.788C616.883 165.312 615.825 166.025 614.925 166.925C614.025 167.825 613.312 168.883 612.788 170.1C612.262 171.317 612 172.617 612 174C612 175.383 612.262 176.683 612.788 177.9C613.312 179.117 614.025 180.175 614.925 181.075C615.825 181.975 616.883 182.688 618.1 183.212Z" fill="#F5F5F5"/>
<rect x="32" y="222" width="600" height="16" rx="8" fill="#F5F5F5"/>
<rect x="32" y="250" width="600" height="16" rx="8" fill="#F5F5F5"/>
<rect x="32" y="278" width="354" height="16" rx="8" fill="#F5F5F5"/>
<path d="M40.1 339.212C41.3167 339.737 42.6167 340 44 340C45.3833 340 46.6833 339.737 47.9 339.212C49.1167 338.688 50.175 337.975 51.075 337.075C51.975 336.175 52.6875 335.117 53.2125 333.9C53.7375 332.683 54 331.383 54 330C54 328.617 53.7375 327.317 53.2125 326.1C52.6875 324.883 51.975 323.825 51.075 322.925C50.175 322.025 49.1167 321.312 47.9 320.788C46.6833 320.262 45.3833 320 44 320C42.6167 320 41.3167 320.262 40.1 320.788C38.8833 321.312 37.825 322.025 36.925 322.925C36.025 323.825 35.3125 324.883 34.7875 326.1C34.2625 327.317 34 328.617 34 330C34 331.383 34.2625 332.683 34.7875 333.9C35.3125 335.117 36.025 336.175 36.925 337.075C37.825 337.975 38.8833 338.688 40.1 339.212Z" fill="#F5F5F5"/>
<path d="M66.1 339.212C67.3167 339.737 68.6167 340 70 340C71.3833 340 72.6833 339.737 73.9 339.212C75.1167 338.688 76.175 337.975 77.075 337.075C77.975 336.175 78.6875 335.117 79.2125 333.9C79.7375 332.683 80 331.383 80 330C80 328.617 79.7375 327.317 79.2125 326.1C78.6875 324.883 77.975 323.825 77.075 322.925C76.175 322.025 75.1167 321.312 73.9 320.788C72.6833 320.262 71.3833 320 70 320C68.6167 320 67.3167 320.262 66.1 320.788C64.8833 321.312 63.825 322.025 62.925 322.925C62.025 323.825 61.3125 324.883 60.7875 326.1C60.2625 327.317 60 328.617 60 330C60 331.383 60.2625 332.683 60.7875 333.9C61.3125 335.117 62.025 336.175 62.925 337.075C63.825 337.975 64.8833 338.688 66.1 339.212Z" fill="#F5F5F5"/>
<path d="M92.1 339.212C93.3167 339.737 94.6167 340 96 340C97.3833 340 98.6833 339.737 99.9 339.212C101.117 338.688 102.175 337.975 103.075 337.075C103.975 336.175 104.688 335.117 105.212 333.9C105.737 332.683 106 331.383 106 330C106 328.617 105.737 327.317 105.212 326.1C104.688 324.883 103.975 323.825 103.075 322.925C102.175 322.025 101.117 321.312 99.9 320.788C98.6833 320.262 97.3833 320 96 320C94.6167 320 93.3167 320.262 92.1 320.788C90.8833 321.312 89.825 322.025 88.925 322.925C88.025 323.825 87.3125 324.883 86.7875 326.1C86.2625 327.317 86 328.617 86 330C86 331.383 86.2625 332.683 86.7875 333.9C87.3125 335.117 88.025 336.175 88.925 337.075C89.825 337.975 90.8833 338.688 92.1 339.212Z" fill="#F5F5F5"/>
<path d="M118.1 339.212C119.317 339.737 120.617 340 122 340C123.383 340 124.683 339.737 125.9 339.212C127.117 338.688 128.175 337.975 129.075 337.075C129.975 336.175 130.688 335.117 131.212 333.9C131.737 332.683 132 331.383 132 330C132 328.617 131.737 327.317 131.212 326.1C130.688 324.883 129.975 323.825 129.075 322.925C128.175 322.025 127.117 321.312 125.9 320.788C124.683 320.262 123.383 320 122 320C120.617 320 119.317 320.262 118.1 320.788C116.883 321.312 115.825 322.025 114.925 322.925C114.025 323.825 113.312 324.883 112.788 326.1C112.262 327.317 112 328.617 112 330C112 331.383 112.262 332.683 112.788 333.9C113.312 335.117 114.025 336.175 114.925 337.075C115.825 337.975 116.883 338.688 118.1 339.212Z" fill="#F5F5F5"/>
<rect x="146" y="318" width="97" height="22" rx="11" fill="#F5F5F5"/>
<rect x="32" y="350" width="233" height="16" rx="8" fill="#F5F5F5"/>
<path d="M632 668H32V672H632V668Z" fill="#F5F5F5" mask="url(#path-19-inside-2_1605_923)"/>
<rect x="32" y="430" width="48" height="48" rx="24" fill="#F5F5F5"/>
<path d="M49.6438 457.356C51.4062 459.119 53.525 460 56 460C58.475 460 60.5937 459.119 62.3562 457.356C64.1188 455.594 65 453.475 65 451C65 448.525 64.1188 446.406 62.3562 444.644C60.5937 442.881 58.475 442 56 442C53.525 442 51.4062 442.881 49.6438 444.644C47.8813 446.406 47 448.525 47 451C47 453.475 47.8813 455.594 49.6438 457.356Z" fill="#ECECEC"/>
<path d="M38 471.7V478H74V471.7C74 470.425 73.6719 469.253 73.0156 468.184C72.3594 467.116 71.4875 466.3 70.4 465.738C68.075 464.575 65.7125 463.703 63.3125 463.122C60.9125 462.541 58.475 462.25 56 462.25C53.525 462.25 51.0875 462.541 48.6875 463.122C46.2875 463.703 43.925 464.575 41.6 465.738C40.5125 466.3 39.6406 467.116 38.9844 468.184C38.3281 469.253 38 470.425 38 471.7Z" fill="#ECECEC"/>
<rect x="89" y="446" width="176" height="16" rx="8" fill="#F5F5F5"/>
<rect x="503" y="444" width="97" height="20" rx="10" fill="#F5F5F5"/>
<path d="M618.1 463.212C619.317 463.737 620.617 464 622 464C623.383 464 624.683 463.737 625.9 463.212C627.117 462.688 628.175 461.975 629.075 461.075C629.975 460.175 630.688 459.117 631.212 457.9C631.737 456.683 632 455.383 632 454C632 452.617 631.737 451.317 631.212 450.1C630.688 448.883 629.975 447.825 629.075 446.925C628.175 446.025 627.117 445.312 625.9 444.788C624.683 444.262 623.383 444 622 444C620.617 444 619.317 444.262 618.1 444.788C616.883 445.312 615.825 446.025 614.925 446.925C614.025 447.825 613.312 448.883 612.788 450.1C612.262 451.317 612 452.617 612 454C612 455.383 612.262 456.683 612.788 457.9C613.312 459.117 614.025 460.175 614.925 461.075C615.825 461.975 616.883 462.688 618.1 463.212Z" fill="#F5F5F5"/>
<rect x="32" y="502" width="600" height="16" rx="8" fill="#F5F5F5"/>
<rect x="32" y="530" width="600" height="16" rx="8" fill="#F5F5F5"/>
<rect x="32" y="558" width="354" height="16" rx="8" fill="#F5F5F5"/>
<path d="M40.1 619.212C41.3167 619.737 42.6167 620 44 620C45.3833 620 46.6833 619.737 47.9 619.212C49.1167 618.688 50.175 617.975 51.075 617.075C51.975 616.175 52.6875 615.117 53.2125 613.9C53.7375 612.683 54 611.383 54 610C54 608.617 53.7375 607.317 53.2125 606.1C52.6875 604.883 51.975 603.825 51.075 602.925C50.175 602.025 49.1167 601.312 47.9 600.788C46.6833 600.262 45.3833 600 44 600C42.6167 600 41.3167 600.262 40.1 600.788C38.8833 601.312 37.825 602.025 36.925 602.925C36.025 603.825 35.3125 604.883 34.7875 606.1C34.2625 607.317 34 608.617 34 610C34 611.383 34.2625 612.683 34.7875 613.9C35.3125 615.117 36.025 616.175 36.925 617.075C37.825 617.975 38.8833 618.688 40.1 619.212Z" fill="#F5F5F5"/>
<path d="M66.1 619.212C67.3167 619.737 68.6167 620 70 620C71.3833 620 72.6833 619.737 73.9 619.212C75.1167 618.688 76.175 617.975 77.075 617.075C77.975 616.175 78.6875 615.117 79.2125 613.9C79.7375 612.683 80 611.383 80 610C80 608.617 79.7375 607.317 79.2125 606.1C78.6875 604.883 77.975 603.825 77.075 602.925C76.175 602.025 75.1167 601.312 73.9 600.788C72.6833 600.262 71.3833 600 70 600C68.6167 600 67.3167 600.262 66.1 600.788C64.8833 601.312 63.825 602.025 62.925 602.925C62.025 603.825 61.3125 604.883 60.7875 606.1C60.2625 607.317 60 608.617 60 610C60 611.383 60.2625 612.683 60.7875 613.9C61.3125 615.117 62.025 616.175 62.925 617.075C63.825 617.975 64.8833 618.688 66.1 619.212Z" fill="#F5F5F5"/>
<path d="M92.1 619.212C93.3167 619.737 94.6167 620 96 620C97.3833 620 98.6833 619.737 99.9 619.212C101.117 618.688 102.175 617.975 103.075 617.075C103.975 616.175 104.688 615.117 105.212 613.9C105.737 612.683 106 611.383 106 610C106 608.617 105.737 607.317 105.212 606.1C104.688 604.883 103.975 603.825 103.075 602.925C102.175 602.025 101.117 601.312 99.9 600.788C98.6833 600.262 97.3833 600 96 600C94.6167 600 93.3167 600.262 92.1 600.788C90.8833 601.312 89.825 602.025 88.925 602.925C88.025 603.825 87.3125 604.883 86.7875 606.1C86.2625 607.317 86 608.617 86 610C86 611.383 86.2625 612.683 86.7875 613.9C87.3125 615.117 88.025 616.175 88.925 617.075C89.825 617.975 90.8833 618.688 92.1 619.212Z" fill="#F5F5F5"/>
<path d="M118.1 619.212C119.317 619.737 120.617 620 122 620C123.383 620 124.683 619.737 125.9 619.212C127.117 618.688 128.175 617.975 129.075 617.075C129.975 616.175 130.688 615.117 131.212 613.9C131.737 612.683 132 611.383 132 610C132 608.617 131.737 607.317 131.212 606.1C130.688 604.883 129.975 603.825 129.075 602.925C128.175 602.025 127.117 601.312 125.9 600.788C124.683 600.262 123.383 600 122 600C120.617 600 119.317 600.262 118.1 600.788C116.883 601.312 115.825 602.025 114.925 602.925C114.025 603.825 113.312 604.883 112.788 606.1C112.262 607.317 112 608.617 112 610C112 611.383 112.262 612.683 112.788 613.9C113.312 615.117 114.025 616.175 114.925 617.075C115.825 617.975 116.883 618.688 118.1 619.212Z" fill="#F5F5F5"/>
<rect x="146" y="598" width="97" height="22" rx="11" fill="#F5F5F5"/>
<rect x="32" y="630" width="233" height="16" rx="8" fill="#F5F5F5"/>
</g>
<defs>
<filter id="filter0_ddd_1605_923" x="0" y="0" width="664" height="704" filterUnits="userSpaceOnUse" color-interpolation-filters="sRGB">
<feFlood flood-opacity="0" result="BackgroundImageFix"/>
<feColorMatrix in="SourceAlpha" type="matrix" values="0 0 0 0 0 0 0 0 0 0 0 0 0 0 0 0 0 0 127 0" result="hardAlpha"/>
<feOffset/>
<feGaussianBlur stdDeviation="0.5"/>
<feColorMatrix type="matrix" values="0 0 0 0 0 0 0 0 0 0 0 0 0 0 0 0 0 0 0.04 0"/>
<feBlend mode="normal" in2="BackgroundImageFix" result="effect1_dropShadow_1605_923"/>
<feColorMatrix in="SourceAlpha" type="matrix" values="0 0 0 0 0 0 0 0 0 0 0 0 0 0 0 0 0 0 127 0" result="hardAlpha"/>
<feOffset/>
<feGaussianBlur stdDeviation="1"/>
<feColorMatrix type="matrix" values="0 0 0 0 0 0 0 0 0 0 0 0 0 0 0 0 0 0 0.06 0"/>
<feBlend mode="normal" in2="effect1_dropShadow_1605_923" result="effect2_dropShadow_1605_923"/>
<feColorMatrix in="SourceAlpha" type="matrix" values="0 0 0 0 0 0 0 0 0 0 0 0 0 0 0 0 0 0 127 0" result="hardAlpha"/>
<feOffset dy="2"/>
<feGaussianBlur stdDeviation="4"/>
<feColorMatrix type="matrix" values="0 0 0 0 0 0 0 0 0 0 0 0 0 0 0 0 0 0 0.04 0"/>
<feBlend mode="normal" in2="effect2_dropShadow_1605_923" result="effect3_dropShadow_1605_923"/>
<feBlend mode="normal" in="SourceGraphic" in2="effect3_dropShadow_1605_923" result="shape"/>
</filter>
</defs>
</svg>
