<svg width="312" height="48" viewBox="0 0 312 48" fill="none" xmlns="http://www.w3.org/2000/svg">
<g opacity="0.3">
<path d="M32.1 33.2125C33.3167 33.7375 34.6167 34 36 34C37.3833 34 38.6833 33.7375 39.9 33.2125C41.1167 32.6875 42.175 31.975 43.075 31.075C43.975 30.175 44.6875 29.1167 45.2125 27.9C45.7375 26.6833 46 25.3833 46 24C46 22.6167 45.7375 21.3167 45.2125 20.1C44.6875 18.8833 43.975 17.825 43.075 16.925C42.175 16.025 41.1167 15.3125 39.9 14.7875C38.6833 14.2625 37.3833 14 36 14C34.6167 14 33.3167 14.2625 32.1 14.7875C30.8833 15.3125 29.825 16.025 28.925 16.925C28.025 17.825 27.3125 18.8833 26.7875 20.1C26.2625 21.3167 26 22.6167 26 24C26 25.3833 26.2625 26.6833 26.7875 27.9C27.3125 29.1167 28.025 30.175 28.925 31.075C29.825 31.975 30.8833 32.6875 32.1 33.2125Z" fill="white"/>
</g>
<rect opacity="0.3" x="56" y="18" width="96" height="12" rx="6" fill="white"/>
</svg>
