<svg width="40" height="40" viewBox="0 0 40 40" fill="none" xmlns="http://www.w3.org/2000/svg">
<rect width="40" height="40" rx="20" fill="#F5F5F5"/>
<path d="M14.7031 22.7969C16.1719 24.2656 17.9375 25 20 25C22.0625 25 23.8281 24.2656 25.2969 22.7969C26.7656 21.3281 27.5 19.5625 27.5 17.5C27.5 15.4375 26.7656 13.6719 25.2969 12.2031C23.8281 10.7344 22.0625 10 20 10C17.9375 10 16.1719 10.7344 14.7031 12.2031C13.2344 13.6719 12.5 15.4375 12.5 17.5C12.5 19.5625 13.2344 21.3281 14.7031 22.7969Z" fill="#ECECEC"/>
<path d="M5 34.75V40H35V34.75C35 33.6875 34.7266 32.7109 34.1797 31.8203C33.6328 30.9297 32.9063 30.25 32 29.7812C30.0625 28.8125 28.0938 28.0859 26.0938 27.6016C24.0938 27.1172 22.0625 26.875 20 26.875C17.9375 26.875 15.9062 27.1172 13.9062 27.6016C11.9062 28.0859 9.9375 28.8125 8 29.7812C7.09375 30.25 6.36719 30.9297 5.82031 31.8203C5.27344 32.7109 5 33.6875 5 34.75Z" fill="#ECECEC"/>
</svg>
